<svg width="162" height="40" viewBox="0 0 162 40" fill="none" xmlns="http://www.w3.org/2000/svg">
<rect x="1.65605" y="1.38417" width="158.806" height="36.952" rx="3.65866" fill="white"/>
<path d="M26.3136 15.6672V24.3602H24.6672V19.8293L24.7594 17.2872H24.7331L22.3228 24.3602H20.8344L18.4373 17.2872H18.4109L18.5031 19.8293V24.3602H16.8567V15.6672H19.4909L21.0583 20.4088L21.6115 22.3713H21.6379L22.2042 20.422L23.7584 15.6672H26.3136ZM31.3288 17.6429C31.9961 17.6429 32.58 17.779 33.0805 18.0512C33.5898 18.3234 33.9849 18.7141 34.2659 19.2234C34.5557 19.7327 34.7006 20.3473 34.7006 21.0674C34.7006 21.7786 34.5557 22.3933 34.2659 22.9113C33.9849 23.4206 33.5898 23.8114 33.0805 24.0836C32.58 24.3558 31.9961 24.4919 31.3288 24.4919C30.6702 24.4919 30.0863 24.3558 29.577 24.0836C29.0677 23.8114 28.6682 23.4206 28.3784 22.9113C28.0974 22.3933 27.9569 21.7786 27.9569 21.0674C27.9569 20.3473 28.0974 19.7327 28.3784 19.2234C28.6682 18.7141 29.0677 18.3234 29.577 18.0512C30.0863 17.779 30.6702 17.6429 31.3288 17.6429ZM31.3288 18.9863C30.9951 18.9863 30.7097 19.0653 30.4726 19.2234C30.2443 19.3727 30.0687 19.601 29.9458 19.9083C29.8228 20.2156 29.7614 20.602 29.7614 21.0674C29.7614 21.5327 29.8228 21.9191 29.9458 22.2264C30.0687 22.5337 30.2443 22.7664 30.4726 22.9245C30.7097 23.0738 30.9951 23.1484 31.3288 23.1484C31.6536 23.1484 31.9302 23.0738 32.1585 22.9245C32.3956 22.7664 32.5756 22.5337 32.6986 22.2264C32.8215 21.9191 32.883 21.5327 32.883 21.0674C32.883 20.602 32.8215 20.2156 32.6986 19.9083C32.5756 19.601 32.3956 19.3727 32.1585 19.2234C31.9302 19.0653 31.6536 18.9863 31.3288 18.9863ZM36.2104 24.3602V17.7746H37.7778L37.8963 19.0653C38.072 18.6087 38.3266 18.2575 38.6603 18.0116C39.0027 17.7658 39.4286 17.6429 39.9379 17.6429C40.0871 17.6429 40.2232 17.656 40.3462 17.6824C40.4691 17.7087 40.5701 17.7438 40.6491 17.7877L40.4384 19.3024C40.3506 19.2673 40.2408 19.241 40.1091 19.2234C39.9862 19.2058 39.8237 19.1971 39.6218 19.1971C39.3583 19.1971 39.1037 19.2629 38.8578 19.3946C38.612 19.5175 38.41 19.7107 38.252 19.9742C38.0939 20.2288 38.0149 20.5537 38.0149 20.9488V24.3602H36.2104ZM44.6941 24.4919C44.0004 24.4919 43.3945 24.3558 42.8765 24.0836C42.3672 23.8114 41.9721 23.4206 41.6911 22.9113C41.4101 22.402 41.2696 21.7874 41.2696 21.0674C41.2696 20.3473 41.4101 19.7327 41.6911 19.2234C41.9721 18.7141 42.3628 18.3234 42.8633 18.0512C43.3726 17.779 43.9521 17.6429 44.6019 17.6429C45.2692 17.6429 45.8356 17.779 46.301 18.0512C46.7664 18.3146 47.122 18.679 47.3679 19.1444C47.6137 19.601 47.7366 20.1234 47.7366 20.7117C47.7366 20.8874 47.7323 21.0542 47.7235 21.2122C47.7147 21.3703 47.7015 21.5108 47.684 21.6337H42.4287V20.3825H46.8937L46.0244 20.6986C46.0244 20.1454 45.8971 19.7195 45.6424 19.421C45.3966 19.1224 45.0453 18.9731 44.5887 18.9731C44.2551 18.9731 43.9653 19.0522 43.7194 19.2102C43.4824 19.3683 43.3023 19.6054 43.1794 19.9215C43.0565 20.2288 42.995 20.6195 42.995 21.0937C42.995 21.5591 43.0609 21.9454 43.1926 22.2528C43.3331 22.5513 43.5263 22.7752 43.7721 22.9245C44.0268 23.0738 44.3297 23.1484 44.6809 23.1484C45.0673 23.1484 45.379 23.0738 45.6161 22.9245C45.8532 22.7752 46.0376 22.5689 46.1693 22.3054L47.6049 22.8586C47.4644 23.2011 47.2493 23.4952 46.9595 23.7411C46.6786 23.987 46.3405 24.1758 45.9454 24.3075C45.559 24.4304 45.1419 24.4919 44.6941 24.4919ZM56.2948 17.6429C56.9622 17.6429 57.5461 17.779 58.0466 18.0512C58.5559 18.3234 58.951 18.7141 59.232 19.2234C59.5218 19.7327 59.6666 20.3473 59.6666 21.0674C59.6666 21.7786 59.5218 22.3933 59.232 22.9113C58.951 23.4206 58.5559 23.8114 58.0466 24.0836C57.5461 24.3558 56.9622 24.4919 56.2948 24.4919C55.6363 24.4919 55.0523 24.3558 54.5431 24.0836C54.0338 23.8114 53.6342 23.4206 53.3445 22.9113C53.0635 22.3933 52.923 21.7786 52.923 21.0674C52.923 20.3473 53.0635 19.7327 53.3445 19.2234C53.6342 18.7141 54.0338 18.3234 54.5431 18.0512C55.0523 17.779 55.6363 17.6429 56.2948 17.6429ZM56.2948 18.9863C55.9612 18.9863 55.6758 19.0653 55.4387 19.2234C55.2104 19.3727 55.0348 19.601 54.9119 19.9083C54.7889 20.2156 54.7275 20.602 54.7275 21.0674C54.7275 21.5327 54.7889 21.9191 54.9119 22.2264C55.0348 22.5337 55.2104 22.7664 55.4387 22.9245C55.6758 23.0738 55.9612 23.1484 56.2948 23.1484C56.6197 23.1484 56.8963 23.0738 57.1246 22.9245C57.3617 22.7664 57.5417 22.5337 57.6646 22.2264C57.7876 21.9191 57.849 21.5327 57.849 21.0674C57.849 20.602 57.7876 20.2156 57.6646 19.9083C57.5417 19.601 57.3617 19.3727 57.1246 19.2234C56.8963 19.0653 56.6197 18.9863 56.2948 18.9863ZM61.1765 24.3602V17.7746H62.7966L62.9019 19.7502L62.678 19.5395C62.7834 19.1092 62.9502 18.7536 63.1785 18.4726C63.4068 18.1917 63.6834 17.9853 64.0083 17.8536C64.342 17.7131 64.7064 17.6429 65.1015 17.6429C65.5581 17.6429 65.962 17.7307 66.3133 17.9063C66.6733 18.0819 66.9543 18.3497 67.1562 18.7097C67.367 19.0609 67.4723 19.5044 67.4723 20.04V24.3602H65.6679V20.5537C65.6679 19.9917 65.5581 19.6054 65.3386 19.3946C65.1191 19.1751 64.8337 19.0653 64.4825 19.0653C64.2366 19.0653 63.9951 19.1268 63.758 19.2497C63.5297 19.3639 63.341 19.5527 63.1917 19.8161C63.0512 20.0795 62.9809 20.4308 62.9809 20.8698V24.3602H61.1765ZM77.2955 15.5355C78.156 15.5355 78.8979 15.7155 79.5214 16.0755C80.1448 16.4355 80.6234 16.9492 80.957 17.6165C81.2995 18.2838 81.4707 19.0829 81.4707 20.0137C81.4707 20.9444 81.2995 21.7435 80.957 22.4108C80.6234 23.0782 80.1448 23.5918 79.5214 23.9518C78.8979 24.3119 78.156 24.4919 77.2955 24.4919C76.4349 24.4919 75.6886 24.3119 75.0564 23.9518C74.4329 23.5918 73.95 23.0782 73.6075 22.4108C73.2739 21.7435 73.107 20.9444 73.107 20.0137C73.107 19.0829 73.2739 18.2838 73.6075 17.6165C73.95 16.9492 74.4329 16.4355 75.0564 16.0755C75.6886 15.7155 76.4349 15.5355 77.2955 15.5355ZM77.2955 17.0238C76.8037 17.0238 76.3866 17.138 76.0442 17.3663C75.7017 17.5946 75.4383 17.9326 75.2539 18.3804C75.0783 18.8195 74.9905 19.3639 74.9905 20.0137C74.9905 20.6547 75.0783 21.1991 75.2539 21.6469C75.4383 22.0947 75.7017 22.4328 76.0442 22.6611C76.3866 22.8894 76.8037 23.0035 77.2955 23.0035C77.7784 23.0035 78.1911 22.8894 78.5335 22.6611C78.876 22.4328 79.135 22.0947 79.3106 21.6469C79.495 21.1991 79.5872 20.6547 79.5872 20.0137C79.5872 19.3639 79.495 18.8195 79.3106 18.3804C79.135 17.9326 78.876 17.5946 78.5335 17.3663C78.1911 17.138 77.7784 17.0238 77.2955 17.0238ZM85.4117 24.4919C84.9726 24.4919 84.5775 24.4128 84.2263 24.2548C83.875 24.0967 83.594 23.8465 83.3833 23.504C83.1814 23.1528 83.0804 22.7006 83.0804 22.1474V17.7746H84.8848V21.7127C84.8848 22.222 84.9902 22.5777 85.2009 22.7796C85.4117 22.9728 85.7146 23.0694 86.1097 23.0694C86.2941 23.0694 86.4741 23.0386 86.6498 22.9772C86.8254 22.9069 86.979 22.8016 87.1108 22.6611C87.2512 22.5206 87.361 22.3406 87.44 22.1211C87.5191 21.8928 87.5586 21.6249 87.5586 21.3176V17.7746H89.363V24.3602H87.7561L87.6903 23.2143C87.4708 23.6533 87.1678 23.9782 86.7815 24.1889C86.4039 24.3909 85.9473 24.4919 85.4117 24.4919ZM91.2618 24.3602V17.7746H92.8292L92.9478 19.0653C93.1234 18.6087 93.378 18.2575 93.7117 18.0116C94.0541 17.7658 94.48 17.6429 94.9893 17.6429C95.1386 17.6429 95.2747 17.656 95.3976 17.6824C95.5205 17.7087 95.6215 17.7438 95.7005 17.7877L95.4898 19.3024C95.402 19.2673 95.2922 19.241 95.1605 19.2234C95.0376 19.2058 94.8751 19.1971 94.6732 19.1971C94.4098 19.1971 94.1551 19.2629 93.9092 19.3946C93.6634 19.5175 93.4614 19.7107 93.3034 19.9742C93.1453 20.2288 93.0663 20.5537 93.0663 20.9488V24.3602H91.2618ZM108.252 15.6672V24.3602H106.435V15.6672H108.252ZM102.602 15.6672V24.3602H100.784V15.6672H102.602ZM107.383 19.2366V20.6986H101.693V19.2366H107.383ZM111.246 16.8262C110.868 16.8262 110.587 16.7472 110.403 16.5892C110.218 16.4223 110.126 16.1809 110.126 15.8647C110.126 15.5399 110.218 15.2984 110.403 15.1403C110.587 14.9735 110.868 14.8901 111.246 14.8901C111.623 14.8901 111.904 14.9735 112.089 15.1403C112.273 15.2984 112.365 15.5399 112.365 15.8647C112.365 16.1809 112.273 16.4223 112.089 16.5892C111.904 16.7472 111.623 16.8262 111.246 16.8262ZM112.141 17.7746V24.3602H110.337V17.7746H112.141ZM116.688 24.4919C116.021 24.4919 115.411 24.3733 114.858 24.1362C114.313 23.8992 113.87 23.5655 113.527 23.1352L114.568 22.0815C114.779 22.3976 115.06 22.6567 115.411 22.8586C115.762 23.0606 116.179 23.1616 116.662 23.1616C117.004 23.1616 117.277 23.1133 117.479 23.0167C117.689 22.9113 117.795 22.7489 117.795 22.5294C117.795 22.3889 117.746 22.2703 117.65 22.1737C117.553 22.0684 117.36 21.985 117.07 21.9235L115.911 21.6864C115.147 21.5283 114.603 21.2913 114.278 20.9752C113.962 20.6503 113.804 20.2332 113.804 19.7239C113.804 19.3639 113.909 19.0258 114.12 18.7097C114.34 18.3936 114.664 18.139 115.095 17.9458C115.525 17.7438 116.061 17.6429 116.702 17.6429C117.36 17.6429 117.931 17.7482 118.414 17.959C118.906 18.1609 119.292 18.4639 119.573 18.8678L118.493 19.9215C118.3 19.6141 118.045 19.3814 117.729 19.2234C117.422 19.0566 117.097 18.9731 116.754 18.9731C116.508 18.9731 116.298 18.9995 116.122 19.0522C115.946 19.1049 115.815 19.1795 115.727 19.2761C115.639 19.3639 115.595 19.478 115.595 19.6185C115.595 19.759 115.657 19.882 115.78 19.9873C115.903 20.0839 116.126 20.1673 116.451 20.2376L117.795 20.5142C118.445 20.6459 118.91 20.8698 119.191 21.1859C119.472 21.4932 119.612 21.8664 119.612 22.3054C119.612 22.7269 119.498 23.1045 119.27 23.4382C119.05 23.7631 118.721 24.0221 118.282 24.2153C117.852 24.3997 117.321 24.4919 116.688 24.4919ZM123.383 15.7594V22.2133C123.383 22.5294 123.462 22.762 123.62 22.9113C123.787 23.0518 124.01 23.1221 124.291 23.1221C124.511 23.1221 124.704 23.0913 124.871 23.0299C125.038 22.9596 125.187 22.8674 125.319 22.7533L125.609 23.9518C125.398 24.1187 125.134 24.2504 124.818 24.347C124.502 24.4436 124.169 24.4919 123.817 24.4919C123.378 24.4919 122.988 24.426 122.645 24.2943C122.311 24.1626 122.048 23.9518 121.855 23.6621C121.67 23.3723 121.578 22.986 121.578 22.503V16.2599L123.383 15.7594ZM125.49 17.7746V19.118H120.366V17.7746H125.49ZM129.714 17.6429C130.381 17.6429 130.965 17.779 131.466 18.0512C131.975 18.3234 132.37 18.7141 132.651 19.2234C132.941 19.7327 133.086 20.3473 133.086 21.0674C133.086 21.7786 132.941 22.3933 132.651 22.9113C132.37 23.4206 131.975 23.8114 131.466 24.0836C130.965 24.3558 130.381 24.4919 129.714 24.4919C129.055 24.4919 128.471 24.3558 127.962 24.0836C127.453 23.8114 127.053 23.4206 126.764 22.9113C126.483 22.3933 126.342 21.7786 126.342 21.0674C126.342 20.3473 126.483 19.7327 126.764 19.2234C127.053 18.7141 127.453 18.3234 127.962 18.0512C128.471 17.779 129.055 17.6429 129.714 17.6429ZM129.714 18.9863C129.38 18.9863 129.095 19.0653 128.858 19.2234C128.629 19.3727 128.454 19.601 128.331 19.9083C128.208 20.2156 128.146 20.602 128.146 21.0674C128.146 21.5327 128.208 21.9191 128.331 22.2264C128.454 22.5337 128.629 22.7664 128.858 22.9245C129.095 23.0738 129.38 23.1484 129.714 23.1484C130.039 23.1484 130.315 23.0738 130.544 22.9245C130.781 22.7664 130.961 22.5337 131.084 22.2264C131.207 21.9191 131.268 21.5327 131.268 21.0674C131.268 20.602 131.207 20.2156 131.084 19.9083C130.961 19.601 130.781 19.3727 130.544 19.2234C130.315 19.0653 130.039 18.9863 129.714 18.9863ZM134.596 24.3602V17.7746H136.163L136.281 19.0653C136.457 18.6087 136.712 18.2575 137.045 18.0116C137.388 17.7658 137.814 17.6429 138.323 17.6429C138.472 17.6429 138.608 17.656 138.731 17.6824C138.854 17.7087 138.955 17.7438 139.034 17.7877L138.823 19.3024C138.736 19.2673 138.626 19.241 138.494 19.2234C138.371 19.2058 138.209 19.1971 138.007 19.1971C137.743 19.1971 137.489 19.2629 137.243 19.3946C136.997 19.5175 136.795 19.7107 136.637 19.9742C136.479 20.2288 136.4 20.5537 136.4 20.9488V24.3602H134.596ZM146.343 17.7746L143.682 24.7685C143.471 25.3656 143.234 25.8397 142.971 26.1909C142.716 26.5422 142.418 26.7968 142.075 26.9549C141.741 27.1129 141.342 27.192 140.877 27.192C140.534 27.192 140.218 27.1481 139.928 27.0602C139.647 26.9812 139.401 26.8758 139.191 26.7441L139.573 25.4402C139.739 25.5719 139.915 25.6641 140.099 25.7168C140.284 25.7783 140.495 25.809 140.732 25.809C140.978 25.809 141.188 25.7563 141.364 25.6509C141.548 25.5456 141.702 25.3348 141.825 25.0187L142.049 24.4524L141.324 22.7401L139.309 17.7746H141.311L142.562 21.7259L142.905 23.043L143.313 21.6469L144.512 17.7746H146.343Z" fill="#2947A9"/>
<rect x="1.65605" y="1.38417" width="158.806" height="36.952" rx="3.65866" stroke="#2947A9" stroke-width="1.46346"/>
</svg>
